<?xml version="1.0" encoding="UTF-8" standalone="no"?><svg xmlns="http://www.w3.org/2000/svg" xmlns:xlink="http://www.w3.org/1999/xlink" contentStyleType="text/css" height="494px" preserveAspectRatio="none" style="width:1152px;height:494px;background:#FFFFFF;" version="1.1" viewBox="0 0 1152 494" width="1152px" zoomAndPan="magnify"><defs/><g><text fill="#000000" font-family="sans-serif" font-size="14" font-weight="bold" lengthAdjust="spacing" textLength="266" x="442" y="28.5352">habitica-stat-box Sequence Diagram</text><line style="stroke:#181818;stroke-width:0.5;stroke-dasharray:5.0,5.0;" x1="62" x2="62" y1="73.9766" y2="458.7031"/><line style="stroke:#181818;stroke-width:0.5;stroke-dasharray:5.0,5.0;" x1="264.5" x2="264.5" y1="73.9766" y2="458.7031"/><line style="stroke:#181818;stroke-width:0.5;stroke-dasharray:5.0,5.0;" x1="525" x2="525" y1="73.9766" y2="458.7031"/><line style="stroke:#181818;stroke-width:0.5;stroke-dasharray:5.0,5.0;" x1="675" x2="675" y1="73.9766" y2="458.7031"/><line style="stroke:#181818;stroke-width:0.5;stroke-dasharray:5.0,5.0;" x1="820" x2="820" y1="73.9766" y2="458.7031"/><line style="stroke:#181818;stroke-width:0.5;stroke-dasharray:5.0,5.0;" x1="994" x2="994" y1="73.9766" y2="458.7031"/><line style="stroke:#181818;stroke-width:0.5;stroke-dasharray:5.0,5.0;" x1="1113" x2="1113" y1="73.9766" y2="458.7031"/><rect fill="#E2E2F0" height="30.4883" rx="2.5" ry="2.5" style="stroke:#181818;stroke-width:0.5;" width="115" x="5" y="42.4883"/><text fill="#000000" font-family="sans-serif" font-size="14" lengthAdjust="spacing" textLength="101" x="12" y="63.0234">Github Actions</text><rect fill="#E2E2F0" height="30.4883" rx="2.5" ry="2.5" style="stroke:#181818;stroke-width:0.5;" width="115" x="5" y="457.7031"/><text fill="#000000" font-family="sans-serif" font-size="14" lengthAdjust="spacing" textLength="101" x="12" y="478.2383">Github Actions</text><rect fill="#E2E2F0" height="30.4883" rx="2.5" ry="2.5" style="stroke:#181818;stroke-width:0.5;" width="68" x="230.5" y="42.4883"/><text fill="#000000" font-family="sans-serif" font-size="14" lengthAdjust="spacing" textLength="54" x="237.5" y="63.0234">Rakefile</text><rect fill="#E2E2F0" height="30.4883" rx="2.5" ry="2.5" style="stroke:#181818;stroke-width:0.5;" width="68" x="230.5" y="457.7031"/><text fill="#000000" font-family="sans-serif" font-size="14" lengthAdjust="spacing" textLength="54" x="237.5" y="478.2383">Rakefile</text><rect fill="#E2E2F0" height="30.4883" rx="2.5" ry="2.5" style="stroke:#181818;stroke-width:0.5;" width="185" x="433" y="42.4883"/><text fill="#000000" font-family="sans-serif" font-size="14" lengthAdjust="spacing" textLength="171" x="440" y="63.0234">Services::GrabUserProfile</text><rect fill="#E2E2F0" height="30.4883" rx="2.5" ry="2.5" style="stroke:#181818;stroke-width:0.5;" width="185" x="433" y="457.7031"/><text fill="#000000" font-family="sans-serif" font-size="14" lengthAdjust="spacing" textLength="171" x="440" y="478.2383">Services::GrabUserProfile</text><rect fill="#E2E2F0" height="30.4883" rx="2.5" ry="2.5" style="stroke:#181818;stroke-width:0.5;" width="95" x="628" y="42.4883"/><text fill="#000000" font-family="sans-serif" font-size="14" lengthAdjust="spacing" textLength="81" x="635" y="63.0234">Habitica API</text><rect fill="#E2E2F0" height="30.4883" rx="2.5" ry="2.5" style="stroke:#181818;stroke-width:0.5;" width="95" x="628" y="457.7031"/><text fill="#000000" font-family="sans-serif" font-size="14" lengthAdjust="spacing" textLength="81" x="635" y="478.2383">Habitica API</text><rect fill="#E2E2F0" height="30.4883" rx="2.5" ry="2.5" style="stroke:#181818;stroke-width:0.5;" width="175" x="733" y="42.4883"/><text fill="#000000" font-family="sans-serif" font-size="14" lengthAdjust="spacing" textLength="161" x="740" y="63.0234">ViewModels::StatExport</text><rect fill="#E2E2F0" height="30.4883" rx="2.5" ry="2.5" style="stroke:#181818;stroke-width:0.5;" width="175" x="733" y="457.7031"/><text fill="#000000" font-family="sans-serif" font-size="14" lengthAdjust="spacing" textLength="161" x="740" y="478.2383">ViewModels::StatExport</text><rect fill="#E2E2F0" height="30.4883" rx="2.5" ry="2.5" style="stroke:#181818;stroke-width:0.5;" width="152" x="918" y="42.4883"/><text fill="#000000" font-family="sans-serif" font-size="14" lengthAdjust="spacing" textLength="138" x="925" y="63.0234">Services::UpdateGist</text><rect fill="#E2E2F0" height="30.4883" rx="2.5" ry="2.5" style="stroke:#181818;stroke-width:0.5;" width="152" x="918" y="457.7031"/><text fill="#000000" font-family="sans-serif" font-size="14" lengthAdjust="spacing" textLength="138" x="925" y="478.2383">Services::UpdateGist</text><rect fill="#E2E2F0" height="30.4883" rx="2.5" ry="2.5" style="stroke:#181818;stroke-width:0.5;" width="66" x="1080" y="42.4883"/><text fill="#000000" font-family="sans-serif" font-size="14" lengthAdjust="spacing" textLength="52" x="1087" y="63.0234">Gist API</text><rect fill="#E2E2F0" height="30.4883" rx="2.5" ry="2.5" style="stroke:#181818;stroke-width:0.5;" width="66" x="1080" y="457.7031"/><text fill="#000000" font-family="sans-serif" font-size="14" lengthAdjust="spacing" textLength="52" x="1087" y="478.2383">Gist API</text><polygon fill="#181818" points="252.5,101.2871,262.5,105.2871,252.5,109.2871,256.5,105.2871" style="stroke:#181818;stroke-width:1.0;"/><line style="stroke:#181818;stroke-width:1.0;" x1="62.5" x2="258.5" y1="105.2871" y2="105.2871"/><text fill="#000000" font-family="sans-serif" font-size="13" lengthAdjust="spacing" textLength="178" x="69.5" y="100.5449">$ bundle exec rake stat_box</text><polygon fill="#181818" points="513.5,130.5977,523.5,134.5977,513.5,138.5977,517.5,134.5977" style="stroke:#181818;stroke-width:1.0;"/><line style="stroke:#181818;stroke-width:1.0;" x1="264.5" x2="519.5" y1="134.5977" y2="134.5977"/><text fill="#000000" font-family="sans-serif" font-size="13" lengthAdjust="spacing" textLength="79" x="271.5" y="129.8555">new.perform</text><polygon fill="#181818" points="663.5,159.9082,673.5,163.9082,663.5,167.9082,667.5,163.9082" style="stroke:#181818;stroke-width:1.0;"/><line style="stroke:#181818;stroke-width:1.0;" x1="525.5" x2="669.5" y1="163.9082" y2="163.9082"/><text fill="#000000" font-family="sans-serif" font-size="13" lengthAdjust="spacing" textLength="75" x="532.5" y="159.166">GET request</text><polygon fill="#181818" points="536.5,189.2188,526.5,193.2188,536.5,197.2188,532.5,193.2188" style="stroke:#181818;stroke-width:1.0;"/><line style="stroke:#181818;stroke-width:1.0;" x1="530.5" x2="674.5" y1="193.2188" y2="193.2188"/><text fill="#000000" font-family="sans-serif" font-size="13" lengthAdjust="spacing" textLength="57" x="542.5" y="188.4766">response</text><polygon fill="#181818" points="275.5,218.5293,265.5,222.5293,275.5,226.5293,271.5,222.5293" style="stroke:#181818;stroke-width:1.0;"/><line style="stroke:#181818;stroke-width:1.0;" x1="269.5" x2="524.5" y1="222.5293" y2="222.5293"/><text fill="#000000" font-family="sans-serif" font-size="13" lengthAdjust="spacing" textLength="127" x="281.5" y="217.7871">&lt;Hash&gt;user_profile</text><polygon fill="#181818" points="808.5,247.8398,818.5,251.8398,808.5,255.8398,812.5,251.8398" style="stroke:#181818;stroke-width:1.0;"/><line style="stroke:#181818;stroke-width:1.0;" x1="264.5" x2="814.5" y1="251.8398" y2="251.8398"/><text fill="#000000" font-family="sans-serif" font-size="13" lengthAdjust="spacing" textLength="148" x="271.5" y="247.0977">new.build(user_profile:)</text><polygon fill="#181818" points="275.5,277.1504,265.5,281.1504,275.5,285.1504,271.5,281.1504" style="stroke:#181818;stroke-width:1.0;"/><line style="stroke:#181818;stroke-width:1.0;" x1="269.5" x2="819.5" y1="281.1504" y2="281.1504"/><text fill="#000000" font-family="sans-serif" font-size="13" lengthAdjust="spacing" textLength="105" x="281.5" y="276.4082">&lt;String&gt;content</text><line style="stroke:#181818;stroke-width:1.0;" x1="264.5" x2="306.5" y1="310.4609" y2="310.4609"/><line style="stroke:#181818;stroke-width:1.0;" x1="306.5" x2="306.5" y1="310.4609" y2="323.4609"/><line style="stroke:#181818;stroke-width:1.0;" x1="265.5" x2="306.5" y1="323.4609" y2="323.4609"/><polygon fill="#181818" points="275.5,319.4609,265.5,323.4609,275.5,327.4609,271.5,323.4609" style="stroke:#181818;stroke-width:1.0;"/><text fill="#000000" font-family="sans-serif" font-size="13" lengthAdjust="spacing" textLength="247" x="271.5" y="305.7188">&lt;String&gt;filename, &lt;String&gt;description</text><polygon fill="#181818" points="982,348.7715,992,352.7715,982,356.7715,986,352.7715" style="stroke:#181818;stroke-width:1.0;"/><line style="stroke:#181818;stroke-width:1.0;" x1="264.5" x2="988" y1="352.7715" y2="352.7715"/><text fill="#000000" font-family="sans-serif" font-size="13" lengthAdjust="spacing" textLength="481" x="271.5" y="348.0293">new.perform(gist_id: ENV['STATS_GIST_ID'], filename:, content:, description:)</text><polygon fill="#181818" points="1101,378.082,1111,382.082,1101,386.082,1105,382.082" style="stroke:#181818;stroke-width:1.0;"/><line style="stroke:#181818;stroke-width:1.0;" x1="994" x2="1107" y1="382.082" y2="382.082"/><text fill="#000000" font-family="sans-serif" font-size="13" lengthAdjust="spacing" textLength="94" x="1001" y="377.3398">PATCH request</text><polygon fill="#181818" points="1005,407.3926,995,411.3926,1005,415.3926,1001,411.3926" style="stroke:#181818;stroke-width:1.0;"/><line style="stroke:#181818;stroke-width:1.0;" x1="999" x2="1112" y1="411.3926" y2="411.3926"/><text fill="#000000" font-family="sans-serif" font-size="13" lengthAdjust="spacing" textLength="57" x="1011" y="406.6504">response</text><polygon fill="#181818" points="275.5,436.7031,265.5,440.7031,275.5,444.7031,271.5,440.7031" style="stroke:#181818;stroke-width:1.0;"/><line style="stroke:#181818;stroke-width:1.0;" x1="269.5" x2="993" y1="440.7031" y2="440.7031"/><text fill="#000000" font-family="sans-serif" font-size="13" lengthAdjust="spacing" textLength="25" x="281.5" y="435.9609">true</text><!--SRC=[TL9TRu8m57tdLzoO9Rf4zmF8OaAcGH-sc86-B0ifSDL6A5rRr9-_Kg2ZwjuQpiSzzrmKLGN2aQHKqOpCf29gbbPNYF2dHfOXB2Wv259w7YT2KoWdJC4efEfOfn1aYbPCZe188ERjqZx92VUqG4DGH9vSE49nfXbAtmy5IRSInKPKbj-7IcHBSxMh3eLWitRfX5ENkgDuUQzoBFIWI2-ulF9AA2CwQoWf6-o_P5kU4uKXbQtWe1-F0pKK6yRGcY1UMmlCvcP_yE49qfhbkdIyOWP2DmHDwubktJCKJRrTNSiONbuuYdqbIkyE7ahqL4qFbp68vePIUGxqs5sWvFgG-D2w2_ww8l8uhpMGyFPCDkzVZLtIjAP5FXbo_MTlm1guHafGTfXd5LF8bBMyWHiBHagSsYyvoanGRdwwNZIyZjlPn40qzs7viViQHt4GHqcuZk9alHX_Jw7tzwVG9T6lmGWTtp7lXxLjRuBuRMNxji1z8jlphLcthX8r_W80]--></g></svg>